# xmcd
#
# Track frame offsets: 
#        150
#        10537
#        26215
#        38950
#        47855
#        60210
#        76683
#        88810
#        105930
#        115287
#        131975
#        143265
#
# Disc length: 2094 seconds
#
# Revision: 0
# Processed by: cddbd v1.5.2PL0 Copyright (c) Steve Scherf et al.
# Submitted via: ExactAudioCopy v0.95b3
#
DISCID=8d082c0c
DTITLE=The Rolling Stones  - Stone Age  
DYEAR=1900
DGENRE=
TTITLE0=Look What You've Done
TTITLE1=It's All Over Now
TTITLE2=Confessin' The Blues
TTITLE3=One More Try
TTITLE4=As Tears Go By
TTITLE5=The Spider And The Fly
TTITLE6=My Girl
TTITLE7=Paint It,Black
TTITLE8=If You Need Me
TTITLE9=The Last Time
TTITLE10=Blue Turns To Grey
TTITLE11=Around And Around
EXTD=
EXTT0=
EXTT1=
EXTT2=
EXTT3=
EXTT4=
EXTT5=
EXTT6=
EXTT7=
EXTT8=
EXTT9=
EXTT10=
EXTT11=
PLAYORDER=
